Coordinates
version=1
nRows=13
nColumns=38
inDegrees=no

Units are S.I. units (second, meters, Newtons, ...)
If the header above contains a line with 'inDegrees', this indicates whether rotational values are in degrees (yes) or radians (no).

endheader
time	pelvis_tilt	pelvis_list	pelvis_rotation	pelvis_tx	pelvis_ty	pelvis_tz	hip_flexion_r	hip_adduction_r	hip_rotation_r	knee_angle_r	ankle_angle_r	subtalar_angle_r	mtp_angle_r	hip_flexion_l	hip_adduction_l	hip_rotation_l	knee_angle_l	ankle_angle_l	subtalar_angle_l	mtp_angle_l	lumbar_extension	lumbar_bending	lumbar_rotation	arm_flex_r	arm_add_r	arm_rot_r	elbow_flex_r	pro_sup_r	wrist_flex_r	wrist_dev_r	arm_flex_l	arm_add_l	arm_rot_l	elbow_flex_l	pro_sup_l	wrist_flex_l	wrist_dev_l
1.09	0.0664173	0.092771	0.0246481	0.924039	1.03744	-0.332148	-0.2964	-0.289013	-0.553152	-1.36454	0.00851261	0.030798	-0.00305	0.366495	0.124183	-0.279864	-0.406974	-0.0243603	0.0409545	-0.00521385	-0.307514	-0.136275	0.105793	-0.444015	-0.239636	0.0334311	2.14045	1.71445	0.00588342	0.0429652	-0.664703	-0.222526	-0.140902	2.21763	1.56046	0.0355502	0.0102162
1.1	0.0674757	0.0984835	0.0326309	0.922077	1.03057	-0.332615	-0.247384	-0.305754	-0.535962	-1.47564	0.0304365	0.030798	-0.00305	0.363583	0.135579	-0.263593	-0.470898	0.0302432	0.0409545	-0.00521385	-0.316825	-0.142577	0.0854868	-0.458052	-0.236566	0.00658783	2.09653	1.71416	0.00588342	0.0429652	-0.631436	-0.24118	-0.129353	2.19658	1.56684	0.0355502	0.0102162
1.11	0.0667258	0.103206	0.0406869	0.919616	1.02337	-0.332949	-0.190596	-0.31861	-0.51556	-1.5809	0.0487494	0.030798	-0.00305	0.362754	0.145919	-0.245306	-0.543015	0.0953552	0.0409545	-0.00521385	-0.324844	-0.147232	0.0622327	-0.468503	-0.234534	-0.0192401	2.04841	1.71447	0.00588342	0.0429652	-0.595377	-0.259863	-0.117666	2.17296	1.57383	0.0355502	0.0102162
1.12	0.0642484	0.106494	0.0486196	0.916751	1.01631	-0.333099	-0.126321	-0.327303	-0.49281	-1.67851	0.0644802	0.030798	-0.00305	0.361995	0.154541	-0.226318	-0.617096	0.166761	0.0409545	-0.00521385	-0.331281	-0.149918	0.0362419	-0.475151	-0.233594	-0.0430707	1.99657	1.71587	0.00588342	0.0429652	-0.557071	-0.277802	-0.106135	2.14801	1.5814	0.0355502	0.0102162
1.13	0.0602108	0.107902	0.0562357	0.913599	1.00978	-0.333068	-0.055314	-0.331752	-0.468822	-1.76652	0.0784986	0.030798	-0.00305	0.359055	0.160676	-0.207586	-0.686987	0.239833	0.0409545	-0.00521385	-0.335873	-0.150239	0.00805431	-0.478339	-0.233713	-0.0641541	1.94219	1.71851	0.00588342	0.0429652	-0.517074	-0.294359	-0.0947739	2.12345	1.58932	0.0355502	0.0102162
1.14	0.0548839	0.106938	0.063326	0.910259	1.00409	-0.332906	0.0211374	-0.332044	-0.444916	-1.84296	0.0914445	0.030798	-0.00305	0.35169	0.163497	-0.189661	-0.747306	0.310217	0.0409545	-0.00521385	-0.338453	-0.14769	-0.0213454	-0.47909	-0.234753	-0.0821552	1.8873	1.7222	0.00588342	0.0429652	-0.47592	-0.309082	-0.0832539	2.10136	1.59705	0.0355502	0.0102162
1.15	0.0485767	0.103165	0.0696459	0.906869	0.999429	-0.332674	0.101287	-0.328444	-0.422545	-1.90601	0.103657	0.030798	-0.00305	0.337914	0.162234	-0.172846	-0.793862	0.374111	0.0409545	-0.00521385	-0.33888	-0.141771	-0.0508058	-0.478828	-0.236592	-0.0969416	1.83455	1.72635	0.00588342	0.0429652	-0.434325	-0.321581	-0.0712016	2.08398	1.60377	0.0355502	0.0102162
1.16	0.0416442	0.0962531	0.0749069	0.903626	0.995987	-0.332421	0.183067	-0.321373	-0.403149	-1.95409	0.115146	0.030798	-0.00305	0.31623	0.156303	-0.157433	-0.823862	0.42824	0.0409545	-0.00521385	-0.337012	-0.132108	-0.0791321	-0.479196	-0.239132	-0.108571	1.78694	1.73012	0.00588342	0.0429652	-0.39319	-0.331506	-0.0583153	2.07347	1.60854	0.0355502	0.0102162
1.17	0.0344575	0.0860252	0.0787742	0.900747	0.993888	-0.332185	0.264242	-0.311326	-0.387967	-1.98608	0.125636	0.030798	-0.00305	0.285745	0.145401	-0.143903	-0.835936	0.469715	0.0409545	-0.00521385	-0.332788	-0.118497	-0.105019	-0.481995	-0.242211	-0.11748	1.74752	1.73263	0.00588342	0.0429652	-0.353403	-0.338609	-0.044252	2.07156	1.61057	0.0355502	0.0102162
1.18	0.0272929	0.0725474	0.0808854	0.898456	0.993195	-0.331982	0.342647	-0.298804	-0.377868	-2.00137	0.134669	0.030798	-0.00305	0.246238	0.129608	-0.133067	-0.82991	0.495843	0.0409545	-0.00521385	-0.326152	-0.101047	-0.127382	-0.488753	-0.245662	-0.124211	1.71872	1.73326	0.00588342	0.0429652	-0.315931	-0.342692	-0.0288702	2.07922	1.60943	0.0355502	0.0102162
1.19	0.0202796	0.0561639	0.0808869	0.896957	0.993896	-0.3318	0.416378	-0.284252	-0.373248	-1.99986	0.141762	0.030798	-0.00305	0.198153	0.10943	-0.126076	-0.806584	0.504102	0.0409545	-0.00521385	-0.31702	-0.0802362	-0.145549	-0.500439	-0.249319	-0.129246	1.7019	1.73171	0.00588342	0.0429652	-0.2818	-0.343615	-0.0123213	2.09656	1.60539	0.0355502	0.0102162
1.2	0.0134369	0.0374943	0.0784797	0.89641	0.995926	-0.331608	0.483888	-0.268037	-0.374005	-1.98191	0.146558	0.030798	-0.00305	0.142513	0.0857828	-0.124333	-0.76756	0.492302	0.0409545	-0.00521385	-0.305369	-0.0568813	-0.1593	-0.517337	-0.252998	-0.132964	1.69718	1.7281	0.00588342	0.0429652	-0.251982	-0.341338	0.00500092	2.12283	1.59938	0.0355502	0.0102162
1.21	0.00675164	0.0173735	0.073473	0.896896	0.999174	-0.331352	0.543995	-0.250447	-0.379585	-1.94833	0.148901	0.030798	-0.00305	0.0808057	0.0599196	-0.129294	-0.715182	0.458946	0.0409545	-0.00521385	-0.291366	-0.0320363	-0.168762	-0.539115	-0.256446	-0.135724	1.7035	1.72283	0.00588342	0.0429652	-0.227208	-0.335986	0.0226316	2.15658	1.59283	0.0355502	0.0102162
